<svg version="1" xmlns="http://www.w3.org/2000/svg" width="682.667" height="682.667" viewBox="0 0 512.000000 512.000000"><path d="M226 23.6C118.9 38.2 36.3 121.7 23 229c-1.5 12.3-1.2 47.6.5 59.5 5.9 41.6 23.2 81.7 49.5 115 9.6 12.2 28.1 30 41.5 40.1 31.7 23.8 66.5 38.4 107 45.1 15.5 2.5 53.5 2.5 69 0 40.5-6.7 75.3-21.3 107-45.1 13.4-10.1 31.9-27.9 41.5-40.1 27-34.2 44.8-76.3 50-118.6 1.7-13.7.8-54.5-1.5-66.9-9.2-50.2-30.9-92.4-65.5-127-37.8-38-83.4-60.4-137.3-67.5-14.7-1.9-44.2-1.8-58.7.1zm35 70c6.3 1.4 11.9 3 12.3 3.4.4.4-1.7 10.5-4.7 22.6-3 12-5.3 22-5.2 22.2.7.6 20.9 5.2 21.3 4.8.3-.3 2.9-10 5.8-21.6 2.9-11.6 5.6-21.4 5.9-21.7.4-.5 26.5 5.5 27.5 6.3.2.2-8.7 38.3-10.5 44.5-.3 1.2 1.1 2.2 5.8 3.9 37.5 13.6 54.2 35.1 49.3 63.4-3.4 19.3-11.9 30.9-27.1 37.1-3 1.2-5.4 2.6-5.3 3.1.2.5 3.3 3 6.9 5.5 15.2 10.7 22.3 26.2 20 44.2-3.9 30.7-20.3 51.3-46 57.8-7.3 1.9-35.5 1.7-47.3-.3-4.8-.9-8.9-1.3-9.1-.9-.2.3-2.9 10.5-6.1 22.6-3.1 12.1-5.9 22.2-6.1 22.4-.3.3-6.5-1.1-13.9-2.9-10.3-2.7-13.5-3.9-13.5-5.1 0-.9 2.3-10.7 5-21.8 2.8-11.1 5-20.8 5-21.5 0-.9-3.7-2.3-10.2-3.9-5.7-1.4-10.4-2.4-10.6-2.3-.2.2-2.8 10-5.8 21.7-3 11.8-5.7 21.9-5.9 22.5-.2.8-4.5.2-14-2.1-7.4-1.8-13.7-3.4-13.9-3.6-.3-.2 2-10.5 5-22.8s5.4-22.7 5.4-23.1c0-.4-12-3.7-26.7-7.5-14.8-3.7-27.2-7.2-27.7-7.6-.9-.8 10.4-28.9 12.4-31.2.4-.4 5.5.4 11.4 1.8S162 306 163 306c2.9 0 6.5-1.9 7.9-4.1 2-3.3 32.1-125.2 32.1-130 0-9.2-4.1-12.5-20.5-16.5-9.4-2.3-11.5-3.1-11.5-4.6 0-2.5 6.1-27.1 7-28.1.3-.4 13 2.4 28.1 6.2 15.1 3.9 27.7 6.7 28 6.3.4-.4 3-10.4 5.9-22.2 2.9-11.8 5.5-21.9 5.7-22.3.3-.4 1.2-.6 2.1-.3 1 .3 6.9 1.7 13.2 3.2z"/><path d="M248.5 203.1c-3.9 15.6-6.4 27.4-5.9 27.9 2.1 1.9 25.3 6.3 36.5 6.7 15.4.7 21.5-.9 27.9-7.5 5-5.2 7-10.3 7-17.6 0-11.6-9.5-21.7-26.5-28.1-6.2-2.4-28.9-8.5-31.3-8.5-.5 0-4 12.2-7.7 27.1zM227 289.2c-4 16.1-7.5 29.8-7.7 30.4-.8 2.4 29.7 9.1 45.5 10 21.5 1.3 32.8-3.6 38.3-16.4 2.6-6 2.5-15.3-.1-20.7-4.8-10-16.9-18-37-24.5-8.9-2.9-28.3-8-30.5-8-.6 0-4.4 13.2-8.5 29.2z"/></svg>
